<?xml version="1.0" encoding="UTF-8" standalone="no"?>
<!-- Created with Inkscape (http://www.inkscape.org/) -->

<svg
   width="500mm"
   height="500mm"
   viewBox="0 0 500 500.00005"
   version="1.1"
   id="svg5"
   inkscape:version="1.1.1 (3bf5ae0d25, 2021-09-20)"
   sodipodi:docname="background.svg"
   xmlns:inkscape="http://www.inkscape.org/namespaces/inkscape"
   xmlns:sodipodi="http://sodipodi.sourceforge.net/DTD/sodipodi-0.dtd"
   xmlns="http://www.w3.org/2000/svg"
   xmlns:svg="http://www.w3.org/2000/svg">
  <sodipodi:namedview
     id="namedview7"
     pagecolor="#505050"
     bordercolor="#eeeeee"
     borderopacity="1"
     inkscape:pageshadow="0"
     inkscape:pageopacity="0"
     inkscape:pagecheckerboard="0"
     inkscape:document-units="mm"
     showgrid="false"
     fit-margin-top="0"
     fit-margin-left="0"
     fit-margin-right="0"
     fit-margin-bottom="0"
     inkscape:zoom="0.25953041"
     inkscape:cx="1142.448"
     inkscape:cy="822.63963"
     inkscape:window-width="1920"
     inkscape:window-height="1009"
     inkscape:window-x="1912"
     inkscape:window-y="-8"
     inkscape:window-maximized="1"
     inkscape:current-layer="layer1" />
  <defs
     id="defs2" />
  <g
     inkscape:label="Layer 1"
     inkscape:groupmode="layer"
     id="layer1"
     transform="translate(220.22379,318.49138)">
    <g
       id="g840"
       transform="matrix(0.34618724,0,0,0.34618724,212.14181,-16.255428)">
	<g
   id="g838">
		
			<rect
   x="52.200001"
   y="64.300003"
   transform="matrix(0.9305,0.3662,-0.3662,0.9305,41.6873,-24.5198)"
   class="st3"
   width="66.599998"
   height="66.599998"
   id="rect826" />

		<circle
   class="st8"
   cx="140.39999"
   cy="96.300003"
   r="27.200001"
   id="circle828" />

		<path
   class="st5"
   d="m 164.7,112.8 c 0,-0.2 0,-0.5 0,-0.7 0,-5.4 -3.1,-10.1 -7.5,-12.4 0,-0.1 0,-0.3 0,-0.4 0,-6.7 -4.7,-12.3 -11,-13.7 0,-0.3 0,-0.5 0,-0.8 0,-7.7 -6.3,-14 -14,-14 -0.2,0 -0.4,0 -0.6,0 -1.7,-5.8 -7.1,-10 -13.4,-10 -4.2,0 -7.9,1.8 -10.5,4.8 -2.6,-2.9 -6.3,-4.8 -10.5,-4.8 -6.5,0 -11.9,4.4 -13.5,10.3 -1,-0.2 -2,-0.3 -3,-0.3 -6,0 -11.1,3.7 -13.1,9 -1.6,-0.6 -3.4,-1 -5.2,-1 -7.7,0 -14,6.3 -14,14 -7.7,0 -14,6.3 -14,14 0,0.3 0,0.7 0.1,1 -5.1,2.1 -8.8,7.1 -8.8,13 0,7.7 6.3,14 14,14 7.7,0 14,-6.3 14,-14 0,-0.3 0,-0.7 -0.1,-1 5.1,-2.1 8.8,-7.1 8.8,-13 6,0 11.1,-3.7 13.1,-9 1.6,0.6 3.4,1 5.2,1 6.5,0 11.9,-4.4 13.5,-10.3 1,0.2 2,0.3 3,0.3 4.2,0 7.9,-1.8 10.5,-4.8 2.6,2.9 6.3,4.8 10.5,4.8 0.2,0 0.4,0 0.6,0 1.4,4.9 5.4,8.6 10.5,9.7 0,0.3 0,0.5 0,0.8 0,5.4 3.1,10.1 7.5,12.4 0,0.1 0,0.3 0,0.4 0,6.2 4,11.4 9.5,13.3 0,0.2 0,0.5 0,0.7 0,7.7 6.3,14 14,14 7.7,0 14,-6.3 14,-14 -0.1,-6.2 -4.1,-11.4 -9.6,-13.3 z"
   id="path830" />

		<path
   class="st1"
   d="m 100.9,78.6 c -29.6,0 -54.4,22.1 -60.9,51.7 -1.7,7.8 3.9,15.2 11.4,15.2 h 98.9 c 7.5,0 13.1,-7.4 11.4,-15.2 -6.3,-29.6 -31.1,-51.7 -60.8,-51.7 z"
   id="path832" />

		<path
   class="st1"
   d="m 133.1,102.9 c 0,0 15.7,10.3 17.3,31"
   id="path834" />

		<path
   class="st8"
   d="m 124.3,93.8 c 0,0 -11.1,-6 -19.8,-7"
   id="path836" />

	</g>

</g>
    <g
       id="g878"
       transform="matrix(0.34618724,0,0,0.34618724,41.159327,99.76692)">
	<g
   id="g876">
		<g
   id="g870">
			<path
   class="st1"
   d="m 46.5,136.3 v 10.5 c 0,5.1 5.8,9.3 12.8,9.3 h 79.8 c 7.1,0 12.8,-4.2 12.8,-9.3 v -10.5 z"
   id="path858" />

			<path
   class="st2"
   d="M 152.6,137.5 H 47.4 c -3.8,0 -6.9,-3.1 -6.9,-6.9 v -2.5 c 0,-3.8 3.1,-6.9 6.9,-6.9 h 105.2 c 3.8,0 6.9,3.1 6.9,6.9 v 2.5 c 0,3.8 -3.1,6.9 -6.9,6.9 z"
   id="path860" />

			<polyline
   class="st3"
   points="57.5,119.5 114.5,146.5 148.5,115.5    "
   id="polyline862" />

			<path
   class="st4"
   d="M 150.9,120.5 H 49.1 c -3.6,0 -6.6,-2.9 -6.6,-6.6 v -1.8 c 0,-3.6 2.9,-6.6 6.6,-6.6 h 101.8 c 3.6,0 6.6,2.9 6.6,6.6 v 1.8 c 0,3.7 -2.9,6.6 -6.6,6.6 z"
   id="path864" />

			<path
   class="st5"
   d="m 133,84.5 c -4.6,0 -8.8,1.9 -11.7,4.8 -2.9,-3 -7.1,-4.8 -11.7,-4.8 -4.4,0 -8.3,1.6 -11.2,4.3 -2.9,-2.7 -6.8,-4.3 -11.2,-4.3 -4.4,0 -8.3,1.6 -11.2,4.3 -2.9,-2.7 -6.8,-4.3 -11.2,-4.3 -8.8,0 -16,6.7 -16,15 0,8.3 7.1,15 16,15 4.4,0 8.3,-1.6 11.2,-4.3 2.9,2.7 6.8,4.3 11.2,4.3 4.4,0 8.3,-1.6 11.2,-4.3 2.9,2.7 6.8,4.3 11.2,4.3 4.6,0 8.8,-1.9 11.7,-4.8 2.9,3 7.1,4.8 11.7,4.8 8.8,0 16,-6.7 16,-15 0,-8.3 -7.1,-15 -16,-15 z"
   id="path866" />

			<path
   class="st1"
   d="m 98.5,44 c -29.4,0 -53.7,21.7 -57.9,49.9 -0.7,4.5 2.8,8.6 7.4,8.6 h 101 c 4.6,0 8.1,-4.1 7.4,-8.6 C 152.2,65.7 127.9,44 98.5,44 Z"
   id="path868" />

		</g>

		<path
   class="st1"
   d="m 135,69.7 c 5,4.9 10.4,13.2 11.4,22.4"
   id="path872" />

		<path
   class="st1"
   d="m 129.5,64.5 c 0,0 -4,-6 -14,-10"
   id="path874" />

	</g>

</g>
    <g
       id="g913"
       transform="matrix(0.34618724,0,0,0.34618724,-209.68026,-168.79771)">
	<g
   id="g911">
		<polyline
   class="st10"
   points="106,63.2 106,41.3 122.6,31.3   "
   id="polyline899" />

		<path
   class="st11"
   d="m 70.1,60.4 4.2,-5.2 c 0.7,-0.8 1.8,-1.4 3.1,-1.4 h 45.9 c 1.3,0 2.6,0.6 3.2,1.6 l 3.5,5.2 c 1.4,2 -0.4,4.5 -3.2,4.5 H 73.2 c -2.9,0 -4.7,-2.7 -3.1,-4.7 z"
   id="path901" />

		<path
   class="st11"
   d="m 68.9,160.9 4.3,6.2 c 0.7,1 1.9,1.6 3.2,1.6 h 47.8 c 1.4,0 2.7,-0.7 3.4,-1.9 l 3.6,-6.2 c 1.4,-2.4 -0.4,-5.4 -3.4,-5.4 H 72.1 c -3,0.1 -4.9,3.3 -3.2,5.7 z"
   id="path903" />

		<path
   class="st8"
   d="M 127.6,162 H 72.4 c -3,0 -5.4,-2.4 -5.4,-5.4 V 66.4 c 0,-3 2.4,-5.4 5.4,-5.4 h 55.3 c 3,0 5.4,2.4 5.4,5.4 v 90.3 c -0.1,2.9 -2.5,5.3 -5.5,5.3 z"
   id="path905" />

		<circle
   class="st11"
   cx="100"
   cy="106.2"
   r="20.6"
   id="circle907" />

		<path
   class="st11"
   d="m 100,118.5 c 0,0 12.8,-0.8 14.3,-13.2"
   id="path909" />

	</g>

</g>
    <g
       id="g939"
       transform="matrix(0.34618724,0,0,0.34618724,66.991545,-168.02352)">
	<g
   id="g937">
		<path
   class="st11"
   d="m 80.1,143 23.7,-40.9 -12.1,-7 -23.8,40.9 c -4.3,-2.2 -9.6,-0.7 -12.1,3.6 -2.5,4.4 -1,10 3.4,12.6 2.2,1.3 4.7,1.5 7,0.9 0.6,2.3 2.1,4.3 4.3,5.6 4.4,2.5 10,1 12.6,-3.4 2.3,-4.3 1,-9.7 -3,-12.3 z"
   id="path931" />

		<path
   class="st7"
   d="M 140.1,93.7 C 150.4,76 145.4,53.9 129,44.4 112.6,34.9 91,41.6 80.8,59.3 c -4.5,7.8 -6.1,16.4 -5,24.4 -0.2,0.4 -0.5,0.7 -0.7,1.1 -7.3,12.6 -3,28.8 9.6,36.1 12.6,7.3 28.8,3 36.1,-9.6 0.2,-0.4 0.4,-0.7 0.6,-1.1 7.5,-3 14.2,-8.7 18.7,-16.5 z"
   id="path933" />

		<path
   class="st7"
   d="m 131.8,56.3 c 0,0 12.3,7.9 4.8,28.1"
   id="path935" />

	</g>

</g>
    <g
       id="g968"
       transform="matrix(0.34618724,0,0,0.34618724,-83.18973,-267.55039)">
	<g
   id="g966">
		<g
   id="g958">
			<path
   class="st1"
   d="m 87.9,162.6 h -1.1 c -10.1,0 -18.4,-8.2 -18.4,-18.4 V 58.6 c 0,-10.1 8.2,-18.4 18.4,-18.4 h 1.1 c 10.1,0 18.4,8.2 18.4,18.4 v 85.6 c -0.1,10.2 -8.3,18.4 -18.4,18.4 z"
   id="path954" />

			<path
   class="st1"
   d="m 113.2,162.6 h -1.1 c -10.1,0 -18.4,-8.2 -18.4,-18.4 V 58.6 c 0,-10.1 8.2,-18.4 18.4,-18.4 h 1.1 c 10.1,0 18.4,8.2 18.4,18.4 v 85.6 c -0.1,10.2 -8.3,18.4 -18.4,18.4 z"
   id="path956" />

		</g>

		<path
   class="st8"
   d="m 100.4,168.2 h -0.8 c -7.4,0 -13.5,-6 -13.5,-13.5 V 45.3 c 0,-7.4 6,-13.5 13.5,-13.5 h 0.8 c 7.4,0 13.5,6 13.5,13.5 v 109.4 c -0.1,7.4 -6.1,13.5 -13.5,13.5 z"
   id="path960" />

		<g
   id="g964">
			<path
   class="st10"
   d="m 104.7,44.9 c 0,8 -8,8 -8,16 0,8 8,8 8,16 0,8 -8,8 -8,16 0,8 8,8 8,16 0,8 -8,8 -8,16 0,8 8,8 8,16 0,8 -8,8 -8,16"
   id="path962" />

		</g>

	</g>

</g>
    <g
       id="g1000"
       transform="matrix(0.34618724,0,0,0.34618724,-53.759234,-43.894472)">
	<g
   id="g998">
		<polygon
   class="st8"
   points="91.8,172 108.3,172 125.9,172 138.2,73.5 108.3,73.5 91.7,73.5 61.8,73.5 74.2,172 "
   id="polygon986" />

		<circle
   class="st3"
   cx="100"
   cy="121"
   r="20"
   id="circle988" />

		<rect
   x="71"
   y="54"
   class="st11"
   width="58"
   height="12"
   id="rect990" />

		<path
   class="st11"
   d="m 139.5,79 -79,0.1 v -8.3 c 0,-3.7 3,-6.7 6.7,-6.7 h 65.6 c 3.7,0 6.7,3 6.7,6.7 z"
   id="path992" />

		<line
   class="st11"
   x1="113.1"
   y1="52"
   x2="118.1"
   y2="26"
   id="line994" />

		<path
   class="st3"
   d="m 100.1,130 c 0,0 10,1 11,-12"
   id="path996" />

	</g>

</g>
    <g
       id="g1034"
       transform="matrix(0.34618724,0,0,0.34618724,152.67634,-300.06945)">
	<g
   id="g1032">
		<path
   class="st12"
   d="m 143,76.2 -20.3,39.2 -5.4,10.5 -8.5,16.4 L 100,159 80.5,121.4 77.4,115.3 69.6,100.3 57,76.2 c 8.6,-11.5 24.8,-25.9 43.2,-25.9 18.4,0 34.2,14.4 42.8,25.9 z"
   id="path1018" />

		<path
   class="st7"
   d="m 147,68.5 -4,7.7 C 134.4,64.7 118.5,54.4 100.1,54.4 81.7,54.4 65.6,64.7 57,76.2 l -4,-7.7 c 0.1,-0.2 0.2,-0.4 0.3,-0.6 C 60.2,53.1 78.6,41 100.1,41 c 21.5,0 39.7,12.1 46.6,26.9 0.2,0.2 0.2,0.4 0.3,0.6 z"
   id="path1020" />

		<circle
   class="st8"
   cx="120.2"
   cy="80.699997"
   r="10.8"
   id="circle1022" />

		<path
   class="st8"
   d="m 94,108 c 0,7.4 -6,13.4 -13.4,13.4 h -0.1 l -3.1,-6.1 -7.8,-15 C 72,96.8 76,94.5 80.6,94.5 88,94.6 94,100.6 94,108 Z"
   id="path1024" />

		<path
   class="st5"
   d="m 117.3,125.8 -8.5,16.4 c -3.2,-1.4 -5.5,-4.7 -5.5,-8.5 0,-5.1 4.2,-9.3 9.3,-9.3 1.6,0.1 3.3,0.6 4.7,1.4 z"
   id="path1026" />

		<circle
   class="st3"
   cx="83.099998"
   cy="76.599998"
   r="8.8000002"
   id="circle1028" />

		<circle
   class="st3"
   cx="110.4"
   cy="108"
   r="6.1999998"
   id="circle1030" />

	</g>

</g>
    <g
       id="g1077"
       transform="matrix(0.34618724,0,0,0.34618724,-189.45682,82.661786)">
	<g
   id="g1075">
		<g
   id="g1071">
			<rect
   x="79.5"
   y="46.200001"
   class="st3"
   width="14"
   height="73.900002"
   id="rect1053" />

			<rect
   x="94.5"
   y="36.799999"
   class="st3"
   width="14"
   height="73.900002"
   id="rect1055" />

			<polygon
   class="st3"
   points="106,123.5 111,49.7 125,50.5 120,124.3 "
   id="polygon1057" />

			<polygon
   class="st3"
   points="119,129.1 124,55.4 138,56.2 133,130 "
   id="polygon1059" />

			<polygon
   class="st3"
   points="64.8,136.8 46.6,64.9 60.2,61.8 78.4,133.7 "
   id="polygon1061" />

			<polygon
   class="st3"
   points="70.9,130.2 62.2,56.7 76.1,55.2 84.8,128.7 "
   id="polygon1063" />

			<polygon
   class="st3"
   points="123.6,132.2 139.7,59.9 153.4,62.6 137.3,135 "
   id="polygon1065" />

			<path
   class="st8"
   d="m 134.3,90.3 c -2.9,10.8 -17.2,19 -34.5,19 -17.3,0 -31.6,-8.2 -34.5,-19 h -13 l 17,73 h 15 31 15 l 17,-73 z"
   id="path1067" />

			<circle
   class="st3"
   cx="99.900002"
   cy="134.8"
   r="15.5"
   id="circle1069" />

		</g>

		<path
   class="st10"
   d="m 99.5,142.3 c 0,0 9,0 9,-10"
   id="path1073" />

	</g>

</g>
  </g>
  <style
     type="text/css"
     id="style824">
	.st0{fill:#FCBF75;stroke:#391410;stroke-width:6;stroke-linecap:round;stroke-linejoin:round;stroke-miterlimit:10;}
	.st1{fill:#FFBE57;stroke:#391410;stroke-width:5;stroke-linecap:round;stroke-linejoin:round;stroke-miterlimit:10;}
	.st2{fill:#CC4825;stroke:#391410;stroke-width:5;stroke-linecap:round;stroke-linejoin:round;stroke-miterlimit:10;}
	.st3{fill:#FCEE21;stroke:#391410;stroke-width:5;stroke-linecap:round;stroke-linejoin:round;stroke-miterlimit:10;}
	.st4{fill:#8C6239;stroke:#391410;stroke-width:5;stroke-linecap:round;stroke-linejoin:round;stroke-miterlimit:10;}
	.st5{fill:#48B748;stroke:#391410;stroke-width:5;stroke-linecap:round;stroke-linejoin:round;stroke-miterlimit:10;}
	.st6{fill:#F9AE41;stroke:#391410;stroke-width:5;stroke-linecap:round;stroke-linejoin:round;stroke-miterlimit:10;}
	.st7{fill:#EA6D36;stroke:#391410;stroke-width:5;stroke-linecap:round;stroke-linejoin:round;stroke-miterlimit:10;}
	.st8{fill:#ED1C24;stroke:#391410;stroke-width:5;stroke-linecap:round;stroke-linejoin:round;stroke-miterlimit:10;}
	.st9{clip-path:url(#SVGID_2_);}
	.st10{fill:none;stroke:#391410;stroke-width:5;stroke-linecap:round;stroke-linejoin:round;stroke-miterlimit:10;}
	.st11{fill:#FFFFFF;stroke:#391410;stroke-width:5;stroke-linecap:round;stroke-linejoin:round;stroke-miterlimit:10;}
	.st12{fill:#F7C331;stroke:#391410;stroke-width:5;stroke-linecap:round;stroke-linejoin:round;stroke-miterlimit:10;}
</style>
  <style
     type="text/css"
     id="style856">
	.st0{fill:#FCBF75;stroke:#391410;stroke-width:6;stroke-linecap:round;stroke-linejoin:round;stroke-miterlimit:10;}
	.st1{fill:#FFBE57;stroke:#391410;stroke-width:5;stroke-linecap:round;stroke-linejoin:round;stroke-miterlimit:10;}
	.st2{fill:#CC4825;stroke:#391410;stroke-width:5;stroke-linecap:round;stroke-linejoin:round;stroke-miterlimit:10;}
	.st3{fill:#FCEE21;stroke:#391410;stroke-width:5;stroke-linecap:round;stroke-linejoin:round;stroke-miterlimit:10;}
	.st4{fill:#8C6239;stroke:#391410;stroke-width:5;stroke-linecap:round;stroke-linejoin:round;stroke-miterlimit:10;}
	.st5{fill:#48B748;stroke:#391410;stroke-width:5;stroke-linecap:round;stroke-linejoin:round;stroke-miterlimit:10;}
	.st6{fill:#F9AE41;stroke:#391410;stroke-width:5;stroke-linecap:round;stroke-linejoin:round;stroke-miterlimit:10;}
	.st7{fill:#EA6D36;stroke:#391410;stroke-width:5;stroke-linecap:round;stroke-linejoin:round;stroke-miterlimit:10;}
	.st8{fill:#ED1C24;stroke:#391410;stroke-width:5;stroke-linecap:round;stroke-linejoin:round;stroke-miterlimit:10;}
	.st9{clip-path:url(#SVGID_2_);}
	.st10{fill:none;stroke:#391410;stroke-width:5;stroke-linecap:round;stroke-linejoin:round;stroke-miterlimit:10;}
	.st11{fill:#FFFFFF;stroke:#391410;stroke-width:5;stroke-linecap:round;stroke-linejoin:round;stroke-miterlimit:10;}
	.st12{fill:#F7C331;stroke:#391410;stroke-width:5;stroke-linecap:round;stroke-linejoin:round;stroke-miterlimit:10;}
</style>
  <style
     type="text/css"
     id="style897">
	.st0{fill:#FCBF75;stroke:#391410;stroke-width:6;stroke-linecap:round;stroke-linejoin:round;stroke-miterlimit:10;}
	.st1{fill:#FFBE57;stroke:#391410;stroke-width:5;stroke-linecap:round;stroke-linejoin:round;stroke-miterlimit:10;}
	.st2{fill:#CC4825;stroke:#391410;stroke-width:5;stroke-linecap:round;stroke-linejoin:round;stroke-miterlimit:10;}
	.st3{fill:#FCEE21;stroke:#391410;stroke-width:5;stroke-linecap:round;stroke-linejoin:round;stroke-miterlimit:10;}
	.st4{fill:#8C6239;stroke:#391410;stroke-width:5;stroke-linecap:round;stroke-linejoin:round;stroke-miterlimit:10;}
	.st5{fill:#48B748;stroke:#391410;stroke-width:5;stroke-linecap:round;stroke-linejoin:round;stroke-miterlimit:10;}
	.st6{fill:#F9AE41;stroke:#391410;stroke-width:5;stroke-linecap:round;stroke-linejoin:round;stroke-miterlimit:10;}
	.st7{fill:#EA6D36;stroke:#391410;stroke-width:5;stroke-linecap:round;stroke-linejoin:round;stroke-miterlimit:10;}
	.st8{fill:#ED1C24;stroke:#391410;stroke-width:5;stroke-linecap:round;stroke-linejoin:round;stroke-miterlimit:10;}
	.st9{clip-path:url(#SVGID_2_);}
	.st10{fill:none;stroke:#391410;stroke-width:5;stroke-linecap:round;stroke-linejoin:round;stroke-miterlimit:10;}
	.st11{fill:#FFFFFF;stroke:#391410;stroke-width:5;stroke-linecap:round;stroke-linejoin:round;stroke-miterlimit:10;}
	.st12{fill:#F7C331;stroke:#391410;stroke-width:5;stroke-linecap:round;stroke-linejoin:round;stroke-miterlimit:10;}
</style>
  <style
     type="text/css"
     id="style929">
	.st0{fill:#FCBF75;stroke:#391410;stroke-width:6;stroke-linecap:round;stroke-linejoin:round;stroke-miterlimit:10;}
	.st1{fill:#FFBE57;stroke:#391410;stroke-width:5;stroke-linecap:round;stroke-linejoin:round;stroke-miterlimit:10;}
	.st2{fill:#CC4825;stroke:#391410;stroke-width:5;stroke-linecap:round;stroke-linejoin:round;stroke-miterlimit:10;}
	.st3{fill:#FCEE21;stroke:#391410;stroke-width:5;stroke-linecap:round;stroke-linejoin:round;stroke-miterlimit:10;}
	.st4{fill:#8C6239;stroke:#391410;stroke-width:5;stroke-linecap:round;stroke-linejoin:round;stroke-miterlimit:10;}
	.st5{fill:#48B748;stroke:#391410;stroke-width:5;stroke-linecap:round;stroke-linejoin:round;stroke-miterlimit:10;}
	.st6{fill:#F9AE41;stroke:#391410;stroke-width:5;stroke-linecap:round;stroke-linejoin:round;stroke-miterlimit:10;}
	.st7{fill:#EA6D36;stroke:#391410;stroke-width:5;stroke-linecap:round;stroke-linejoin:round;stroke-miterlimit:10;}
	.st8{fill:#ED1C24;stroke:#391410;stroke-width:5;stroke-linecap:round;stroke-linejoin:round;stroke-miterlimit:10;}
	.st9{clip-path:url(#SVGID_2_);}
	.st10{fill:none;stroke:#391410;stroke-width:5;stroke-linecap:round;stroke-linejoin:round;stroke-miterlimit:10;}
	.st11{fill:#FFFFFF;stroke:#391410;stroke-width:5;stroke-linecap:round;stroke-linejoin:round;stroke-miterlimit:10;}
	.st12{fill:#F7C331;stroke:#391410;stroke-width:5;stroke-linecap:round;stroke-linejoin:round;stroke-miterlimit:10;}
</style>
  <style
     type="text/css"
     id="style952">
	.st0{fill:#FCBF75;stroke:#391410;stroke-width:6;stroke-linecap:round;stroke-linejoin:round;stroke-miterlimit:10;}
	.st1{fill:#FFBE57;stroke:#391410;stroke-width:5;stroke-linecap:round;stroke-linejoin:round;stroke-miterlimit:10;}
	.st2{fill:#CC4825;stroke:#391410;stroke-width:5;stroke-linecap:round;stroke-linejoin:round;stroke-miterlimit:10;}
	.st3{fill:#FCEE21;stroke:#391410;stroke-width:5;stroke-linecap:round;stroke-linejoin:round;stroke-miterlimit:10;}
	.st4{fill:#8C6239;stroke:#391410;stroke-width:5;stroke-linecap:round;stroke-linejoin:round;stroke-miterlimit:10;}
	.st5{fill:#48B748;stroke:#391410;stroke-width:5;stroke-linecap:round;stroke-linejoin:round;stroke-miterlimit:10;}
	.st6{fill:#F9AE41;stroke:#391410;stroke-width:5;stroke-linecap:round;stroke-linejoin:round;stroke-miterlimit:10;}
	.st7{fill:#EA6D36;stroke:#391410;stroke-width:5;stroke-linecap:round;stroke-linejoin:round;stroke-miterlimit:10;}
	.st8{fill:#ED1C24;stroke:#391410;stroke-width:5;stroke-linecap:round;stroke-linejoin:round;stroke-miterlimit:10;}
	.st9{clip-path:url(#SVGID_2_);}
	.st10{fill:none;stroke:#391410;stroke-width:5;stroke-linecap:round;stroke-linejoin:round;stroke-miterlimit:10;}
	.st11{fill:#FFFFFF;stroke:#391410;stroke-width:5;stroke-linecap:round;stroke-linejoin:round;stroke-miterlimit:10;}
	.st12{fill:#F7C331;stroke:#391410;stroke-width:5;stroke-linecap:round;stroke-linejoin:round;stroke-miterlimit:10;}
</style>
  <style
     type="text/css"
     id="style984">
	.st0{fill:#FCBF75;stroke:#391410;stroke-width:6;stroke-linecap:round;stroke-linejoin:round;stroke-miterlimit:10;}
	.st1{fill:#FFBE57;stroke:#391410;stroke-width:5;stroke-linecap:round;stroke-linejoin:round;stroke-miterlimit:10;}
	.st2{fill:#CC4825;stroke:#391410;stroke-width:5;stroke-linecap:round;stroke-linejoin:round;stroke-miterlimit:10;}
	.st3{fill:#FCEE21;stroke:#391410;stroke-width:5;stroke-linecap:round;stroke-linejoin:round;stroke-miterlimit:10;}
	.st4{fill:#8C6239;stroke:#391410;stroke-width:5;stroke-linecap:round;stroke-linejoin:round;stroke-miterlimit:10;}
	.st5{fill:#48B748;stroke:#391410;stroke-width:5;stroke-linecap:round;stroke-linejoin:round;stroke-miterlimit:10;}
	.st6{fill:#F9AE41;stroke:#391410;stroke-width:5;stroke-linecap:round;stroke-linejoin:round;stroke-miterlimit:10;}
	.st7{fill:#EA6D36;stroke:#391410;stroke-width:5;stroke-linecap:round;stroke-linejoin:round;stroke-miterlimit:10;}
	.st8{fill:#ED1C24;stroke:#391410;stroke-width:5;stroke-linecap:round;stroke-linejoin:round;stroke-miterlimit:10;}
	.st9{clip-path:url(#SVGID_2_);}
	.st10{fill:none;stroke:#391410;stroke-width:5;stroke-linecap:round;stroke-linejoin:round;stroke-miterlimit:10;}
	.st11{fill:#FFFFFF;stroke:#391410;stroke-width:5;stroke-linecap:round;stroke-linejoin:round;stroke-miterlimit:10;}
	.st12{fill:#F7C331;stroke:#391410;stroke-width:5;stroke-linecap:round;stroke-linejoin:round;stroke-miterlimit:10;}
</style>
  <style
     type="text/css"
     id="style1016">
	.st0{fill:#FCBF75;stroke:#391410;stroke-width:6;stroke-linecap:round;stroke-linejoin:round;stroke-miterlimit:10;}
	.st1{fill:#FFBE57;stroke:#391410;stroke-width:5;stroke-linecap:round;stroke-linejoin:round;stroke-miterlimit:10;}
	.st2{fill:#CC4825;stroke:#391410;stroke-width:5;stroke-linecap:round;stroke-linejoin:round;stroke-miterlimit:10;}
	.st3{fill:#FCEE21;stroke:#391410;stroke-width:5;stroke-linecap:round;stroke-linejoin:round;stroke-miterlimit:10;}
	.st4{fill:#8C6239;stroke:#391410;stroke-width:5;stroke-linecap:round;stroke-linejoin:round;stroke-miterlimit:10;}
	.st5{fill:#48B748;stroke:#391410;stroke-width:5;stroke-linecap:round;stroke-linejoin:round;stroke-miterlimit:10;}
	.st6{fill:#F9AE41;stroke:#391410;stroke-width:5;stroke-linecap:round;stroke-linejoin:round;stroke-miterlimit:10;}
	.st7{fill:#EA6D36;stroke:#391410;stroke-width:5;stroke-linecap:round;stroke-linejoin:round;stroke-miterlimit:10;}
	.st8{fill:#ED1C24;stroke:#391410;stroke-width:5;stroke-linecap:round;stroke-linejoin:round;stroke-miterlimit:10;}
	.st9{clip-path:url(#SVGID_2_);}
	.st10{fill:none;stroke:#391410;stroke-width:5;stroke-linecap:round;stroke-linejoin:round;stroke-miterlimit:10;}
	.st11{fill:#FFFFFF;stroke:#391410;stroke-width:5;stroke-linecap:round;stroke-linejoin:round;stroke-miterlimit:10;}
	.st12{fill:#F7C331;stroke:#391410;stroke-width:5;stroke-linecap:round;stroke-linejoin:round;stroke-miterlimit:10;}
</style>
  <style
     type="text/css"
     id="style1051">
	.st0{fill:#FCBF75;stroke:#391410;stroke-width:6;stroke-linecap:round;stroke-linejoin:round;stroke-miterlimit:10;}
	.st1{fill:#FFBE57;stroke:#391410;stroke-width:5;stroke-linecap:round;stroke-linejoin:round;stroke-miterlimit:10;}
	.st2{fill:#CC4825;stroke:#391410;stroke-width:5;stroke-linecap:round;stroke-linejoin:round;stroke-miterlimit:10;}
	.st3{fill:#FCEE21;stroke:#391410;stroke-width:5;stroke-linecap:round;stroke-linejoin:round;stroke-miterlimit:10;}
	.st4{fill:#8C6239;stroke:#391410;stroke-width:5;stroke-linecap:round;stroke-linejoin:round;stroke-miterlimit:10;}
	.st5{fill:#48B748;stroke:#391410;stroke-width:5;stroke-linecap:round;stroke-linejoin:round;stroke-miterlimit:10;}
	.st6{fill:#F9AE41;stroke:#391410;stroke-width:5;stroke-linecap:round;stroke-linejoin:round;stroke-miterlimit:10;}
	.st7{fill:#EA6D36;stroke:#391410;stroke-width:5;stroke-linecap:round;stroke-linejoin:round;stroke-miterlimit:10;}
	.st8{fill:#ED1C24;stroke:#391410;stroke-width:5;stroke-linecap:round;stroke-linejoin:round;stroke-miterlimit:10;}
	.st9{clip-path:url(#SVGID_2_);}
	.st10{fill:none;stroke:#391410;stroke-width:5;stroke-linecap:round;stroke-linejoin:round;stroke-miterlimit:10;}
	.st11{fill:#FFFFFF;stroke:#391410;stroke-width:5;stroke-linecap:round;stroke-linejoin:round;stroke-miterlimit:10;}
	.st12{fill:#F7C331;stroke:#391410;stroke-width:5;stroke-linecap:round;stroke-linejoin:round;stroke-miterlimit:10;}
</style>
</svg>
