<?xml version="1.0" encoding="UTF-8" standalone="no"?>
<!-- Created with Inkscape (http://www.inkscape.org/) -->

<svg
   width="451.35999mm"
   height="66.513283mm"
   viewBox="0 0 451.36001 66.513283"
   version="1.1"
   id="svg5"
   inkscape:version="1.1.1 (3bf5ae0d25, 2021-09-20)"
   xmlns:inkscape="http://www.inkscape.org/namespaces/inkscape"
   xmlns:sodipodi="http://sodipodi.sourceforge.net/DTD/sodipodi-0.dtd"
   xmlns="http://www.w3.org/2000/svg"
   xmlns:svg="http://www.w3.org/2000/svg">
  <sodipodi:namedview
     id="namedview7"
     pagecolor="#505050"
     bordercolor="#eeeeee"
     borderopacity="1"
     inkscape:pageshadow="0"
     inkscape:pageopacity="0"
     inkscape:pagecheckerboard="0"
     inkscape:document-units="mm"
     showgrid="false"
     fit-margin-top="0"
     fit-margin-left="0"
     fit-margin-right="0"
     fit-margin-bottom="0"
     inkscape:zoom="0.32"
     inkscape:cx="1514.0625"
     inkscape:cy="260.9375"
     inkscape:window-width="1920"
     inkscape:window-height="1009"
     inkscape:window-x="1912"
     inkscape:window-y="-8"
     inkscape:window-maximized="1"
     inkscape:current-layer="layer1" />
  <defs
     id="defs2" />
  <g
     inkscape:label="Layer 1"
     inkscape:groupmode="layer"
     id="layer1"
     transform="translate(411.20342,22.00168)">
    <path
       d="m 39.476541,-14.263498 c -0.77611,-0.77612 -0.95249,-0.81139 -19.79082,-1.97556 -7.65528,-0.49388 -20.0377903,-1.27 -27.5166703,-1.76388 -7.4788897,-0.45862 -17.4625097,-1.02306 -22.2249997,-1.23473 -4.76251,-0.21167 -10.86556,-0.52916 -13.58195,-0.70555 -2.71639,-0.21167 -10.26583,-0.67028 -16.75694,-1.05834 -6.49111,-0.38805 -13.26445,-0.81139 -15.06361,-0.95249 -2.01084,-0.10584 -4.26861,-0.0353 -5.96195,0.21166 -3.175,0.52917 -9.59555,2.50472 -12.77055,3.95111 -3.4925,1.5875 -13.723061,8.71361 -19.296951,13.51139 -5.32695,4.58611002 -8.78417,6.56166 -14.11112,8.04333 -2.64582,0.74083 -3.45722,0.81139 -13.40555,0.77611 -10.90084,-0.0353 -17.49778,-0.24694 -50.97639,-1.72861 -10.75972,-0.49389 -23.31861,-1.02305 -27.86945,-1.23472 -4.55084,-0.21167 -13.44083,-0.59971998 -19.75555,-0.88193998 -6.31473,-0.28223 -17.00388,-0.67028 -23.81249,-0.88195 -12.31194,-0.35277 -18.13277,-0.59972 -40.21667,-1.58749002 -24.72971,-1.12889 -60.6425,-2.61056 -67.38056,-2.82222 -3.88055,-0.10583 -9.34861,-0.35279 -12.13555,-0.56444 -8.18446,-0.56446 -13.47612,0.35277 -19.19111,3.28081 -3.88056,2.01085002 -5.96195,4.02167 -7.54945,7.26723 -1.27,2.54 -1.34055,2.85751 -1.30528,6.03249 10e-6,3.91585 0.63501,5.71501 2.99862,8.53723 3.10443,3.73945 9.94833,7.09084 16.72166,8.21973 1.37584,0.21166 32.63195,-0.81139 57.50277,-1.905 18.87363,-0.84668 54.50418,-2.11666 67.90974,-2.46945 8.04333,-0.21166 23.07165,-0.67027 33.33748,-1.05832 10.30111,-0.35279 24.09473,-0.84668 30.69167,-1.05836 6.59695,-0.21165 17.56833,-0.59971 24.34167,-0.88193 6.80861,-0.28222 20.21417,-0.77611 29.80972,-1.09361 l 17.4625,-0.59973 3.56306,0.88194 c 4.48029,1.12885 8.71362,3.24556 12.84112,6.35001 6.56166,4.93889 19.049991,13.37028 21.554721,14.53444 3.49249,1.65806 7.93749,2.89278 12.17083,3.38667 3.03389,0.38805 4.445,0.35277 10.90083,-0.3175 4.09223,-0.38805 10.01889,-0.88195 13.22917,-1.09361 3.21028,-0.21167 8.29028,-0.52917 11.28889,-0.74083 6.35,-0.38806 35.5247297,-2.89278 43.0388897,-3.66889 2.82222,-0.28223 8.21973,-0.67028 11.9944403,-0.88195 9.87779,-0.49389 27.65779,-1.905 28.64556,-2.29306 0.77611,-0.3175 1.44639,-2.04611 1.16417,-2.99861 -0.14112,-0.38806 -0.56444,-0.9525 -0.98779,-1.19945 -0.84665,-0.52916 -1.79916,-0.56444 -42.2274903,-1.44638 -45.2966597,-0.9525 -43.0388897,-0.88195 -43.7797197,-1.62278 -0.74084,-0.74083 -0.84668,-2.2225 -0.31751,-3.63361 0.21167,-0.635 0.67029,-0.91722 1.48167,-1.05834 0.63501,-0.10583 8.21972,-0.35277 16.86278,-0.56444 15.91028,-0.38806 30.9033397,-0.77611 54.50416,-1.41111 l 13.05278,-0.35278 0.8114,-0.91722 c 0.95249,-1.09362 0.98778,-2.25777 0.10582,-3.35139 -0.63499,-0.77611 -0.95248,-0.84666 -6.94971,-1.09361 -8.36083,-0.3175 -30.1977803,-0.88195 -53.05778,-1.37583 -10.19528,-0.17639 -20.35528,-0.45861 -22.57779,-0.59973 l -4.02166,-0.24694 -0.31751,-1.12889 c -0.42332,-1.37583 -0.10582,-2.78694 0.67029,-3.06917 0.67028,-0.24694 9.8425,-0.67027 35.06611,-1.62277 10.3716797,-0.38806 22.93056,-0.84667 27.86945,-1.05834 4.93889,-0.17638 11.99445,-0.42333 15.66333,-0.56444 6.38528,-0.21167 6.70278,-0.24695 7.51417,-1.05833 1.05833,-1.05834 1.0936,-3.0339 0.10584,-4.02166998 -0.70556,-0.70556 -1.16418,-0.70556 -43.0036203,-0.70556 -40.1108397,0 -42.3333397,-0.0353 -43.0741697,-0.63499 -0.9525,-0.77611002 -1.34055,-3.45723002 -0.70555,-4.97417002 0.59972,-1.44639 1.65805,-1.69333 7.93749,-1.94028 2.92807,-0.14111 11.07723,-0.45861 18.16807,-0.74083 31.29139,-1.27 39.96971,-1.58751 44.2736,-1.5875 2.54001,0 7.12612,-0.10584 10.19529,-0.24695 4.79777,-0.17638 5.715,-0.31749 6.27944,-0.88194 0.81139,-0.81139 0.81139,-2.57528 -0.0353,-3.42195 z"
       id="path826"
       style="fill:#000000;fill-opacity:1;stroke:none;stroke-width:0.0352778" />
  </g>
</svg>
