<?xml version="1.0" encoding="UTF-8" standalone="no"?>
<!-- Created with Inkscape (http://www.inkscape.org/) -->

<svg
   width="448.06589mm"
   height="49.136536mm"
   viewBox="0 0 448.06591 49.136536"
   version="1.1"
   id="svg5"
   inkscape:version="1.1.1 (3bf5ae0d25, 2021-09-20)"
   xmlns:inkscape="http://www.inkscape.org/namespaces/inkscape"
   xmlns:sodipodi="http://sodipodi.sourceforge.net/DTD/sodipodi-0.dtd"
   xmlns="http://www.w3.org/2000/svg"
   xmlns:svg="http://www.w3.org/2000/svg">
  <sodipodi:namedview
     id="namedview7"
     pagecolor="#505050"
     bordercolor="#eeeeee"
     borderopacity="1"
     inkscape:pageshadow="0"
     inkscape:pageopacity="0"
     inkscape:pagecheckerboard="0"
     inkscape:document-units="mm"
     showgrid="false"
     fit-margin-top="0"
     fit-margin-left="0"
     fit-margin-right="0"
     fit-margin-bottom="0"
     inkscape:zoom="1.28"
     inkscape:cx="1047.2656"
     inkscape:cy="125.39063"
     inkscape:window-width="1920"
     inkscape:window-height="1009"
     inkscape:window-x="1912"
     inkscape:window-y="-8"
     inkscape:window-maximized="1"
     inkscape:current-layer="layer1" />
  <defs
     id="defs2" />
  <g
     inkscape:label="Layer 1"
     inkscape:groupmode="layer"
     id="layer1"
     transform="translate(210.32812,-112.95418)">
    <path
       d="m -209.38422,132.2549 c 2.11666,4.55084 8.36083,9.27806 17.4625,13.22917 7.72583,3.35139 22.33083,7.44361 33.51389,9.45445 4.37444,0.77611 10.01889,1.79916 12.55889,2.25778 13.19387,2.43417 21.13139,3.06916 56.268055,4.40971 5.36223,0.21167 18.48555,0.42334 29.10416,0.45862 18.48555,0.0353 19.86138,0 29.95088,-0.91723 19.6497,-1.79916 20.49638,-1.94028 42.19221,-6.42056 18.97943,-3.91583 22.2603,-4.445 37.18277,-5.78555 14.81666,-1.34055 30.76224,-1.37584 54.327795,-0.0706 6.98498,0.38806 15.24,0.77611 18.34444,0.91723 13.2997,0.49389 21.66055,0.9525 35.27779,1.94027 37.67664,2.68112 59.90163,4.05695 65.96944,4.05694 4.79779,0 6.6675,-0.74083 9.31332,-3.49249 3.49252,-3.73946 5.2211,-8.74889 5.57389,-16.26306 0.42335,-9.0664 -1.2347,-15.20473 -5.22114,-19.43805 -2.18721,-2.29305 -4.58609,-3.35139 -7.90219,-3.59834 -2.36362,-0.14111 -10.23058,0.42334 -20.81391,1.51695 -2.7164,0.28222 -7.72584,0.77611 -11.11249,1.05834 -3.38665,0.3175 -9.66612,0.9525 -13.93474,1.41112 -4.26859,0.49388 -11.64165,1.12887 -16.40416,1.4111 -4.76246,0.28221 -15.23997,1.09361 -23.28331,1.76389 -38.38223,3.21028 -52.634465,3.84527 -80.962505,3.59833 -24.20054,-0.21167 -32.17332,-0.52917 -46.0375,-1.83445 -5.1505702,-0.49388 -10.3716802,-0.9525 -11.64168017,-1.05833 -4.83306003,-0.38805 -39.65219983,-1.94028 -51.54086983,-2.29305 -6.87913,-0.21167 -18.90886,-0.70556 -26.77582,-1.09361 -17.67416,-0.88195 -29.774455,-1.23472 -58.913895,-1.72861 -35.66582,-0.59972 -53.30471,-0.59973 -56.62082,-0.0706 -6.70278,1.12889 -11.53583,2.78694 -13.75834,4.72723 -2.96333,2.61055 -3.9511,7.97277 -2.11666,11.85333 z"
       id="path828"
       style="fill:#000000;fill-opacity:1;stroke:#ffffff;stroke-width:0.0352778;stroke-opacity:1" />
  </g>
</svg>
